<?xml version="1.0" standalone="no"?>
<!DOCTYPE svg PUBLIC "-//W3C//DTD SVG 20010904//EN"
 "http://www.w3.org/TR/2001/REC-SVG-20010904/DTD/svg10.dtd">
<svg version="1.0" xmlns="http://www.w3.org/2000/svg"
 width="1404.000000pt" height="1404.000000pt" viewBox="0 0 1404.000000 1404.000000"
 preserveAspectRatio="xMidYMid meet">
<metadata>
Created by potrace 1.14, written by Peter Selinger 2001-2017
</metadata>
<g transform="translate(0.000000,1404.000000) scale(0.100000,-0.100000)"
fill="#000000" stroke="none">
<path d="M6469 12766 c-2 -2 -80 -6 -174 -10 -93 -4 -186 -9 -205 -11 -692
-81 -1216 -220 -1780 -475 -215 -97 -521 -261 -660 -353 -25 -17 -46 -31 -47
-32 -1 0 11 -41 27 -90 15 -50 35 -123 43 -163 9 -41 18 -76 21 -79 3 -3 41
18 85 46 990 635 2162 915 3351 800 995 -96 1954 -485 2740 -1112 185 -148
246 -203 446 -402 399 -398 671 -765 940 -1267 63 -118 183 -372 223 -473 9
-23 18 -30 37 -30 23 1 117 -10 168 -19 39 -8 120 -47 169 -82 58 -42 59 -53
-15 146 -156 419 -387 854 -661 1245 -290 413 -689 833 -1098 1157 -646 511
-1412 880 -2205 1062 -239 55 -566 107 -759 121 -44 3 -107 8 -140 11 -69 6
-501 14 -506 10z"/>
<path d="M2725 12213 c-169 -20 -347 -94 -547 -227 -118 -78 -205 -150 -345
-281 -67 -64 -143 -133 -170 -154 -117 -94 -370 -386 -564 -651 -310 -423
-557 -885 -709 -1327 -110 -319 -154 -580 -153 -893 2 -398 73 -664 232 -875
205 -273 488 -438 721 -422 133 9 225 60 237 129 5 33 2 41 -28 71 -28 28 -56
39 -165 70 -198 55 -285 100 -397 206 -146 138 -247 327 -290 541 -78 381 -5
895 195 1395 229 569 595 1116 1051 1567 403 400 757 628 972 628 101 0 160
-24 230 -95 196 -195 252 -580 180 -1220 -45 -393 -114 -743 -290 -1465 -290
-1191 -448 -1922 -564 -2615 -64 -375 -254 -1911 -255 -2055 -1 -151 23 -200
99 -200 81 0 88 24 141 485 15 132 127 887 164 1100 137 800 224 1224 536
2590 272 1190 286 1254 334 1523 84 470 104 672 105 1012 0 318 -7 402 -47
565 -77 316 -244 526 -466 585 -46 12 -157 19 -207 13z"/>
<path d="M2719 11183 c-394 -385 -692 -771 -967 -1249 -140 -244 -245 -464
-343 -718 -170 -438 -235 -677 -323 -1187 -4 -23 2 -29 58 -56 56 -28 254 -88
262 -80 2 2 6 21 9 43 156 1075 656 2098 1401 2866 l114 117 1 93 c4 253 1
358 -11 358 -5 0 -96 -84 -201 -187z"/>
<path d="M12869 10256 c-66 -45 -115 -144 -183 -370 -137 -452 -254 -1075
-316 -1682 -21 -209 -14 -191 -123 -281 -38 -32 -97 -82 -131 -111 -34 -29
-110 -86 -171 -127 -232 -156 -404 -226 -565 -231 -91 -3 -98 -2 -167 31 -134
65 -190 160 -198 336 -6 113 -11 105 90 128 200 47 497 281 592 466 54 104 67
153 65 237 -2 56 -22 100 -64 139 -42 38 -102 52 -201 47 -70 -4 -96 -10 -160
-40 -278 -132 -533 -481 -573 -783 -5 -41 -16 -63 -61 -119 -61 -75 -190 -203
-268 -264 -247 -194 -479 -170 -597 62 -59 117 -86 270 -89 513 -3 180 -45
253 -147 253 -33 0 -45 -6 -74 -38 -34 -38 -98 -126 -98 -136 0 -3 -13 -24
-29 -48 -15 -24 -43 -70 -61 -103 -18 -33 -36 -64 -40 -70 -4 -5 -23 -39 -42
-75 -20 -36 -47 -86 -62 -112 -14 -26 -38 -69 -52 -95 -45 -84 -166 -263 -177
-263 -18 0 0 154 34 279 49 183 120 334 245 521 212 320 354 380 541 232 112
-89 164 -104 201 -57 40 51 -10 179 -102 262 -151 137 -351 150 -546 36 -78
-45 -226 -189 -302 -293 -30 -41 -79 -118 -109 -170 -58 -101 -60 -106 -110
-215 -17 -38 -47 -91 -65 -116 -19 -26 -34 -49 -34 -52 0 -6 -83 -143 -179
-295 -174 -278 -397 -539 -508 -596 -128 -64 -215 -11 -258 156 -37 140 -47
422 -26 718 6 80 14 183 17 230 3 47 8 96 10 110 2 14 7 120 11 236 11 376
-29 487 -176 486 -94 -1 -143 -35 -347 -237 -101 -101 -208 -204 -237 -229
-54 -46 -123 -82 -130 -68 -2 4 -4 41 -6 82 -9 256 -110 420 -260 420 -72 0
-187 -100 -301 -260 -37 -52 -161 -252 -275 -445 -114 -192 -219 -361 -232
-375 l-25 -25 7 110 c13 205 31 319 91 562 29 117 47 212 47 252 1 58 -1 65
-27 86 -32 25 -67 35 -129 35 -35 0 -46 -6 -83 -45 -92 -95 -190 -368 -235
-648 -8 -56 -17 -80 -28 -84 -96 -32 -692 -433 -961 -647 -63 -51 -139 -110
-169 -132 l-55 -40 -57 75 c-80 106 -187 211 -336 331 -227 183 -265 229 -265
321 1 60 33 128 102 215 81 101 108 120 199 139 91 20 93 22 93 114 2 154
-110 193 -294 103 -151 -74 -284 -208 -354 -358 -42 -91 -56 -150 -56 -244 0
-171 76 -285 337 -500 135 -112 286 -266 337 -345 54 -81 57 -69 -57 -190
-357 -376 -465 -509 -599 -732 -128 -213 -179 -372 -179 -563 -1 -189 36 -279
146 -354 157 -106 379 -59 612 131 172 140 354 434 459 743 68 197 81 277 80
475 -1 148 -4 184 -27 278 -38 156 -37 164 26 224 72 68 281 233 412 325 346
243 601 415 606 410 4 -4 9 -51 12 -104 6 -101 37 -213 77 -280 51 -88 172
-123 264 -78 25 12 69 47 97 78 89 97 135 174 394 662 48 91 121 215 161 276
69 104 159 204 184 204 5 0 10 -22 10 -49 0 -62 23 -184 45 -236 48 -112 130
-175 227 -175 101 0 183 58 413 289 94 94 176 171 182 171 17 0 9 -101 -38
-515 -35 -308 -46 -568 -30 -713 44 -401 177 -634 376 -661 226 -31 480 139
749 501 61 81 111 146 113 144 2 -1 7 -27 13 -57 17 -88 69 -148 143 -165 12
-3 49 -8 83 -11 74 -6 122 14 179 79 48 55 128 178 190 293 131 246 149 277
193 338 18 26 37 47 41 47 5 0 11 -29 15 -65 24 -231 172 -460 361 -555 79
-41 90 -44 187 -48 185 -8 314 44 524 212 71 56 138 113 148 124 11 12 22 22
26 22 4 0 15 -19 26 -42 53 -123 158 -234 276 -291 99 -49 143 -57 283 -53
108 2 131 6 230 40 126 42 274 118 406 206 94 64 302 226 307 241 15 39 19
-34 17 -303 -6 -607 35 -948 141 -1176 63 -137 137 -202 238 -208 111 -6 212
78 345 287 68 107 195 350 253 484 14 33 69 155 120 270 52 116 103 230 114
255 10 25 90 187 176 361 87 174 158 328 158 341 0 32 -35 68 -65 68 -64 0
-143 -134 -408 -690 -30 -63 -78 -164 -107 -225 -29 -60 -121 -249 -205 -420
-166 -335 -217 -415 -320 -498 -55 -44 -61 -46 -73 -30 -21 30 -62 171 -84
293 -35 195 -36 747 -3 1080 3 25 12 117 21 205 52 540 178 1272 309 1809 25
102 54 205 64 229 26 61 62 209 63 259 2 83 -2 99 -31 129 -39 39 -109 41
-162 5z m-1325 -1688 c-31 -106 -126 -219 -267 -316 -76 -52 -187 -117 -187
-109 0 2 7 22 16 43 48 114 202 298 311 370 45 30 111 61 135 63 4 1 0 -23 -8
-51z m-7454 -1885 c0 -82 -6 -188 -14 -238 -35 -226 -200 -588 -341 -746 -93
-105 -224 -189 -293 -189 -89 0 -114 120 -66 315 35 141 133 342 239 490 136
191 429 515 465 515 6 0 10 -52 10 -147z"/>
<path d="M12030 8535 c-6 -36 -9 -48 -20 -82 -6 -21 -18 -52 -26 -70 -8 -17
-14 -34 -14 -37 0 -13 -95 -163 -139 -221 l-46 -60 9 -67 c5 -38 14 -68 19
-68 13 0 58 34 177 133 88 74 96 83 102 126 6 32 2 76 -12 146 -26 126 -47
213 -50 200z"/>
<path d="M11960 7145 c-41 -24 -81 -44 -87 -44 -9 -1 -13 -22 -14 -68 0 -38
-2 -86 -4 -108 -2 -22 -6 -87 -10 -145 -4 -58 -8 -116 -10 -130 -2 -14 -8 -70
-15 -125 -39 -345 -126 -713 -260 -1095 -33 -96 -62 -179 -63 -184 -2 -8 284
-126 304 -126 9 0 30 52 95 239 91 257 164 539 219 838 l26 142 -25 128 c-13
70 -28 155 -31 188 -4 33 -9 72 -10 87 -2 15 -7 83 -11 150 -3 68 -8 139 -10
158 -1 19 -3 59 -3 88 -1 28 -4 52 -8 51 -5 0 -42 -20 -83 -44z"/>
<path d="M1285 7118 c-22 -5 -91 -8 -153 -5 l-114 4 6 -131 c14 -317 33 -492
81 -776 106 -617 327 -1230 648 -1792 59 -105 79 -130 56 -72 -22 58 -22 230
1 433 12 107 20 206 17 220 -3 14 -33 91 -67 171 -243 570 -384 1248 -399
1928 -1 35 -7 37 -76 20z"/>
<path d="M11223 4964 c-57 -28 -110 -99 -178 -234 -37 -73 -65 -133 -63 -135
3 -3 166 -87 409 -213 l156 -80 22 44 c12 25 19 48 17 52 -2 4 -40 25 -84 46
l-80 39 40 82 41 82 60 7 c33 3 81 6 106 6 25 0 51 4 57 8 13 8 57 92 51 98
-3 3 -110 -7 -208 -21 l-36 -5 -5 51 c-13 134 -185 232 -305 173z m134 -103
c53 -25 78 -68 69 -123 -6 -34 -55 -143 -84 -186 -7 -11 -31 -3 -113 38 -57
29 -106 54 -108 56 -6 6 40 100 74 154 26 41 77 80 105 80 8 0 34 -9 57 -19z"/>
<path d="M1984 4045 c131 -191 254 -350 457 -588 l26 -31 126 114 127 114 -23
25 c-98 109 -142 161 -230 276 -133 173 -117 158 -154 140 -107 -53 -270 -31
-380 52 -34 25 -29 15 51 -102z"/>
<path d="M10467 3875 l-27 -33 62 -59 c35 -33 92 -86 128 -119 140 -128 164
-169 141 -245 -16 -55 -88 -126 -135 -134 -81 -16 -109 1 -298 177 -61 57
-117 107 -126 112 -11 6 -23 -1 -47 -30 l-32 -38 151 -138 c83 -76 173 -149
200 -163 129 -65 289 3 368 155 31 60 31 157 1 215 -29 55 -320 336 -346 334
-7 0 -24 -15 -40 -34z"/>
<path d="M2868 3288 c-175 -78 -318 -144 -318 -148 0 -4 17 -21 39 -38 l38
-31 63 30 c34 16 67 29 74 29 11 0 76 -56 209 -180 l38 -36 -27 -74 -26 -74
38 -33 c22 -18 41 -33 44 -33 3 0 54 147 114 326 l108 326 -38 39 -39 38 -317
-141z m224 -123 c-26 -74 -51 -134 -55 -132 -5 1 -44 34 -87 72 l-79 70 127
62 c70 34 130 62 134 62 3 1 -15 -60 -40 -134z"/>
<path d="M9360 2881 c-75 -23 -323 -177 -313 -194 177 -289 328 -522 338 -521
26 3 247 147 286 187 64 67 84 118 84 217 0 95 -14 134 -73 208 -39 49 -89 83
-148 100 -46 13 -135 15 -174 3z m119 -102 c64 -13 133 -72 156 -134 26 -68
17 -154 -21 -202 -26 -32 -177 -144 -193 -143 -3 1 -57 84 -120 186 -91 148
-111 188 -100 195 65 44 155 93 182 99 45 11 41 11 96 -1z"/>
<path d="M3952 2460 c-79 -155 -142 -283 -140 -285 1 -1 73 -38 158 -80 176
-88 236 -102 304 -70 74 35 115 139 81 206 -10 19 -24 42 -33 52 -14 16 -13
17 12 17 43 0 95 29 122 69 44 65 25 156 -43 208 -38 29 -266 150 -298 158
-17 5 -38 -31 -163 -275z m384 45 c51 -51 19 -130 -51 -128 -32 1 -208 82
-202 93 1 3 18 35 36 72 l35 66 79 -39 c44 -22 90 -51 103 -64z m-208 -182
c48 -26 97 -58 110 -72 28 -30 28 -70 1 -105 -32 -40 -80 -35 -193 21 l-94 47
39 78 c22 43 41 78 44 78 3 0 45 -21 93 -47z"/>
<path d="M8020 2287 c-19 -6 -36 -11 -37 -11 -1 -1 -11 -73 -23 -161 -11 -88
-31 -243 -44 -345 -14 -102 -23 -186 -22 -187 1 -1 25 5 53 14 l51 16 7 79 c4
43 9 78 11 78 2 0 72 20 156 45 l153 45 20 -23 c11 -12 34 -40 51 -61 l32 -38
43 13 c24 7 47 15 52 19 4 3 -70 99 -165 211 -95 113 -193 231 -218 262 -47
59 -58 63 -120 44z m144 -237 c57 -70 82 -107 73 -111 -19 -10 -198 -61 -201
-57 -7 7 29 287 35 280 4 -4 46 -54 93 -112z"/>
<path d="M5295 2228 c-3 -12 -23 -108 -44 -213 -50 -244 -45 -291 37 -378 20
-20 59 -46 87 -56 162 -61 299 -20 364 107 16 32 101 397 101 436 0 6 -22 17
-49 22 l-49 10 -22 -105 c-70 -335 -74 -345 -133 -381 -67 -41 -193 -14 -240
51 -34 46 -31 100 12 304 23 105 41 193 41 196 0 4 -16 10 -36 13 -19 4 -42
10 -49 12 -9 4 -16 -3 -20 -18z"/>
<path d="M6959 2096 c-2 -2 -58 -6 -125 -7 -66 -1 -137 -5 -158 -7 l-38 -4 6
-42 c3 -22 5 -43 5 -45 1 -2 51 -1 111 1 l110 5 0 -31 c0 -17 3 -105 6 -196 6
-157 5 -166 -15 -191 -37 -47 -119 -44 -179 6 l-29 24 -22 -40 c-22 -39 -23
-41 -4 -61 53 -58 189 -82 260 -45 84 44 108 109 99 269 -3 57 -8 162 -12 233
-6 129 -7 139 -15 131z"/>
</g>
</svg>
