<?xml version="1.0" standalone="no"?>
<!DOCTYPE svg PUBLIC "-//W3C//DTD SVG 20010904//EN"
 "http://www.w3.org/TR/2001/REC-SVG-20010904/DTD/svg10.dtd">
<svg version="1.0" xmlns="http://www.w3.org/2000/svg"
 width="1271.000000pt" height="1271.000000pt" viewBox="0 0 1271.000000 1271.000000"
 preserveAspectRatio="xMidYMid meet">
<metadata>
Created by potrace 1.14, written by Peter Selinger 2001-2017
</metadata>
<g transform="translate(0.000000,1271.000000) scale(0.100000,-0.100000)"
fill="#000000" stroke="none">
<path d="M6028 12705 c-2 -2 -50 -6 -108 -9 -58 -4 -118 -8 -135 -10 -16 -2
-61 -7 -100 -11 -38 -3 -83 -8 -100 -10 -16 -2 -52 -7 -80 -10 -27 -3 -75 -10
-105 -15 -30 -5 -71 -12 -90 -15 -48 -8 -140 -24 -170 -30 -14 -3 -41 -8 -60
-11 -19 -3 -60 -12 -90 -20 -30 -8 -71 -17 -90 -20 -19 -3 -43 -10 -52 -15
-10 -5 -18 -7 -18 -5 0 3 -11 1 -26 -4 -14 -6 -38 -12 -55 -15 -16 -3 -48 -12
-72 -19 -53 -18 -158 -48 -175 -52 -8 -1 -21 -6 -30 -10 -9 -4 -20 -8 -24 -9
-5 -2 -10 -4 -13 -5 -3 -1 -9 -4 -15 -5 -5 -1 -11 -3 -12 -5 -2 -1 -11 -3 -21
-5 -10 -2 -26 -7 -35 -11 -9 -4 -20 -8 -24 -9 -5 -2 -10 -4 -13 -5 -3 -1 -9
-3 -14 -4 -5 0 -13 -4 -17 -8 -4 -5 -13 -8 -20 -8 -7 0 -25 -5 -41 -12 -15 -6
-30 -12 -33 -13 -11 -2 -117 -44 -155 -61 -22 -10 -44 -18 -50 -20 -5 -1 -36
-13 -68 -27 -31 -15 -61 -27 -65 -27 -4 -1 -27 -12 -52 -25 -25 -13 -94 -47
-155 -76 -60 -29 -111 -56 -113 -61 -2 -4 -12 -8 -22 -8 -10 0 -20 -3 -22 -7
-1 -5 -30 -21 -63 -37 -33 -16 -62 -32 -65 -35 -3 -3 -18 -13 -35 -21 -16 -8
-32 -18 -35 -21 -3 -3 -26 -16 -52 -29 -27 -13 -48 -27 -48 -32 0 -4 -6 -8
-14 -8 -8 0 -21 -6 -28 -14 -8 -7 -24 -17 -36 -20 -12 -4 -22 -11 -22 -15 0
-5 -13 -14 -30 -21 -16 -7 -30 -16 -30 -21 0 -5 -5 -9 -10 -9 -6 0 -16 -5 -23
-10 -7 -6 -41 -29 -77 -52 -36 -23 -69 -45 -75 -50 -9 -8 -157 -116 -214 -156
-13 -9 -34 -26 -47 -37 -12 -11 -34 -29 -49 -39 -14 -11 -36 -29 -50 -40 -13
-12 -38 -32 -56 -46 -17 -14 -44 -36 -59 -50 -15 -14 -54 -47 -86 -75 -148
-127 -412 -392 -544 -545 -12 -14 -36 -41 -53 -61 -18 -19 -45 -52 -62 -74
-16 -21 -35 -43 -40 -49 -20 -20 -161 -201 -185 -236 -13 -19 -27 -37 -30 -40
-27 -21 -260 -376 -355 -540 -178 -307 -451 -885 -490 -1040 -1 -3 -5 -14 -10
-25 -28 -68 -51 -134 -104 -303 -33 -104 -62 -200 -65 -213 -3 -13 -23 -92
-44 -174 -22 -83 -42 -171 -46 -195 -3 -25 12 25 34 110 44 169 141 482 148
476 4 -4 -15 -107 -26 -136 -3 -8 -2 -12 1 -9 7 6 58 141 81 214 20 62 141
362 176 435 29 61 33 50 5 -15 -7 -16 -15 -39 -18 -50 -3 -11 -26 -76 -52
-145 -70 -190 -193 -595 -211 -700 -3 -14 -9 -41 -14 -60 -26 -102 -78 -383
-100 -545 -6 -44 -13 -91 -15 -105 -7 -44 -15 -123 -20 -205 -3 -44 -8 -98
-10 -120 -4 -49 -5 -415 -1 -470 2 -22 4 -52 5 -67 0 -16 5 -28 10 -28 14 0
21 49 35 245 12 162 18 233 21 265 2 19 6 64 10 100 3 36 13 121 21 190 9 69
18 139 19 155 8 74 52 309 91 485 3 13 12 53 19 90 8 36 24 99 36 140 11 41
22 83 24 94 17 79 124 405 182 556 52 136 204 482 210 477 2 -2 -17 -52 -42
-110 -95 -222 -280 -761 -302 -880 -2 -10 -16 -71 -33 -135 -44 -178 -67 -286
-95 -449 -14 -81 -27 -157 -29 -168 -2 -11 -7 -54 -11 -95 -4 -41 -8 -77 -10
-80 -2 -3 -6 -43 -10 -90 -4 -47 -9 -98 -11 -115 -12 -124 -19 -399 -15 -684
2 -161 17 -61 26 174 9 204 23 438 30 475 2 9 6 60 10 115 4 55 9 103 11 106
2 4 6 25 9 48 3 23 7 60 10 84 9 71 25 166 41 241 8 39 17 82 19 96 3 14 9 45
16 70 6 25 12 54 14 65 1 11 16 72 33 135 17 63 42 158 56 210 36 140 126 424
137 435 5 5 9 15 9 22 0 43 207 505 272 608 14 22 65 117 113 210 91 175 136
252 214 365 45 66 233 326 248 345 5 6 24 33 43 60 19 28 38 51 42 53 3 2 42
47 85 100 84 105 104 128 145 176 15 17 28 34 28 39 0 4 7 7 16 7 9 0 73 57
143 128 70 70 162 159 205 197 43 39 95 86 116 105 20 19 49 44 63 56 106 83
222 179 225 187 2 4 8 7 14 7 5 0 15 6 22 13 8 6 24 19 36 27 12 8 28 21 36
28 7 6 17 12 23 12 5 0 14 6 18 13 4 6 15 17 24 22 52 32 134 91 137 98 2 4
10 7 18 7 8 0 14 5 14 10 0 6 5 10 10 10 6 0 16 5 23 10 23 19 88 60 96 60 4
0 16 9 26 20 10 11 23 20 30 20 7 0 22 9 35 20 13 11 26 20 30 20 9 0 173 91
180 100 6 8 334 170 343 170 4 0 34 13 67 29 33 16 60 27 60 25 0 -3 12 2 28
10 29 16 118 56 125 56 3 0 22 8 43 17 22 9 41 17 44 18 3 0 19 5 35 12 59 22
70 26 78 28 4 2 9 4 12 5 3 1 8 3 13 4 10 3 114 36 132 43 8 4 18 7 23 8 4 2
8 3 10 5 1 1 9 3 17 5 8 3 47 14 85 25 39 11 81 23 94 26 14 3 29 7 33 10 5 3
24 8 41 11 18 3 39 9 47 13 8 4 31 11 50 14 19 3 44 8 55 11 11 2 40 9 65 16
54 13 71 17 130 29 25 5 56 12 70 15 14 3 45 8 70 11 25 3 47 7 50 9 3 2 29 6
59 10 30 4 63 9 75 11 12 2 41 7 66 9 25 3 52 8 60 10 8 3 33 7 55 11 22 3 43
8 46 10 31 19 589 26 829 11 63 -4 151 -10 195 -12 185 -9 262 -17 324 -32 83
-19 82 -19 216 -39 29 -4 248 -50 330 -69 39 -9 140 -36 225 -60 626 -177
1207 -450 1720 -809 78 -55 309 -225 320 -236 3 -3 28 -23 55 -45 28 -22 55
-44 61 -50 6 -5 28 -23 48 -40 62 -49 142 -123 268 -248 65 -65 122 -115 127
-112 5 2 15 -3 22 -13 13 -15 12 -16 -3 -3 -27 21 -21 -2 6 -28 l25 -23 -6 23
c-11 42 81 -60 222 -246 37 -49 72 -91 76 -93 5 -2 9 -8 9 -13 0 -6 5 -15 10
-22 6 -7 24 -30 40 -52 16 -22 33 -44 37 -50 5 -5 16 -22 25 -36 9 -14 23 -32
30 -40 21 -21 164 -227 228 -329 70 -110 80 -126 117 -190 20 -36 41 -67 45
-68 4 -2 6 -8 2 -13 -3 -5 -1 -9 4 -9 6 0 13 -11 16 -24 3 -14 12 -31 19 -38
7 -7 21 -32 31 -55 11 -24 23 -43 28 -43 4 0 8 -3 7 -7 -2 -16 14 -53 23 -53
5 0 6 -4 3 -10 -3 -5 -1 -10 4 -10 6 0 11 -3 10 -7 -2 -16 14 -53 23 -53 5 0
6 -4 3 -10 -3 -5 -1 -10 5 -10 6 0 8 -4 5 -10 -3 -5 -1 -10 5 -10 6 0 8 -4 5
-10 -3 -5 -1 -10 4 -10 6 0 11 -6 11 -12 0 -7 10 -33 21 -58 11 -25 20 -47 20
-50 0 -3 10 -21 22 -40 12 -19 21 -36 19 -37 -7 -8 0 -23 11 -23 6 0 22 -26
34 -57 12 -32 28 -71 34 -88 7 -16 13 -33 14 -37 2 -5 4 -10 5 -13 1 -3 4 -9
5 -15 1 -5 4 -12 5 -15 1 -3 3 -8 4 -12 1 -5 13 -39 26 -78 13 -38 25 -73 26
-77 1 -5 2 -9 4 -10 1 -2 3 -10 5 -18 2 -8 13 -46 25 -85 29 -95 50 -166 55
-189 2 -10 12 -44 21 -75 9 -31 18 -63 20 -71 2 -8 11 -44 19 -80 18 -69 22
-90 30 -130 5 -28 12 -59 21 -92 3 -13 7 -36 10 -53 3 -16 9 -52 14 -80 5 -27
12 -70 15 -95 4 -24 8 -47 10 -50 4 -6 11 -56 20 -130 6 -55 11 -90 30 -250
15 -118 22 -174 29 -246 2 -18 0 -38 -5 -45 -6 -10 -9 -6 -10 14 -1 15 -3 32
-4 37 -1 6 -3 21 -4 35 0 14 -6 25 -12 25 -7 0 -9 -10 -4 -27 9 -36 14 -567 6
-656 -4 -38 -3 -71 1 -73 4 -3 8 25 8 61 0 36 3 64 8 62 11 -7 -9 -241 -22
-249 -7 -5 -7 -8 2 -8 7 0 10 -5 7 -10 -4 -6 -12 -7 -18 -4 -8 5 -8 3 1 -7 6
-7 12 -31 12 -53 0 -32 -3 -38 -11 -26 -8 12 -9 10 -4 -8 4 -13 3 -61 -1 -105
-7 -76 -9 -79 -15 -42 -6 31 -7 27 -4 -20 2 -33 0 -54 -4 -47 -5 8 -11 -13
-15 -53 -4 -36 -4 -71 0 -77 4 -7 3 -8 -4 -4 -8 4 -12 0 -12 -12 0 -11 -3 -34
-7 -52 -4 -21 -3 -31 4 -27 28 17 -143 -696 -204 -853 -3 -8 -7 -19 -8 -25 -2
-5 -21 -62 -43 -125 -22 -63 -48 -140 -57 -170 -22 -68 -113 -279 -165 -380
-21 -41 -60 -118 -86 -170 -27 -52 -52 -96 -56 -98 -4 -2 -8 -8 -8 -14 0 -35
-410 -688 -432 -688 -4 0 -8 -5 -8 -11 0 -6 -6 -16 -12 -23 -7 -7 -22 -25 -33
-40 -34 -47 -89 -120 -105 -139 -8 -10 -22 -27 -30 -37 -8 -9 -26 -32 -40 -50
-25 -33 -68 -84 -125 -146 -16 -18 -55 -61 -85 -95 -30 -34 -77 -85 -105 -114
-27 -28 -57 -59 -65 -69 -14 -18 -14 -19 15 -3 17 9 44 28 60 42 17 14 44 37
60 51 88 74 207 187 364 344 173 174 174 175 140 113 -18 -35 -37 -63 -41 -63
-5 0 -8 -5 -8 -11 0 -6 -28 -49 -61 -97 -72 -101 -81 -112 -199 -252 -97 -114
-255 -277 -369 -380 -46 -41 -96 -86 -111 -100 -15 -14 -49 -43 -75 -65 -27
-22 -53 -44 -59 -50 -23 -21 -154 -123 -218 -170 -38 -28 -68 -53 -68 -57 0
-5 -6 -8 -14 -8 -8 0 -16 -7 -20 -15 -3 -8 -12 -15 -21 -15 -8 0 -15 -4 -15
-10 0 -5 -6 -10 -13 -10 -7 0 -24 -11 -39 -25 -15 -14 -29 -25 -32 -25 -8 0
-101 -64 -104 -72 -2 -5 -8 -8 -13 -8 -11 0 -72 -42 -77 -52 -2 -5 -7 -8 -12
-8 -11 0 -110 -60 -128 -77 -7 -7 -18 -13 -24 -13 -5 0 -22 -8 -36 -19 -38
-27 -111 -68 -155 -88 -20 -10 -37 -21 -37 -25 0 -12 0 -12 115 47 60 30 115
55 124 54 13 0 13 -2 1 -6 -8 -3 -22 -14 -32 -23 -10 -9 -31 -23 -46 -31 -15
-7 -53 -30 -85 -51 -32 -21 -63 -35 -69 -32 -6 4 -8 2 -5 -3 6 -10 -17 -24
-158 -96 -33 -17 -62 -34 -65 -37 -7 -9 -43 -24 -52 -22 -5 1 -8 -2 -8 -8 0
-6 -3 -9 -7 -8 -11 2 -87 -35 -91 -44 -2 -5 -9 -8 -16 -8 -7 0 -34 -11 -62
-25 -37 -19 -42 -23 -19 -19 17 4 40 13 53 20 12 8 22 12 22 8 0 -3 16 4 35
16 19 12 35 19 35 16 0 -4 11 1 25 10 14 9 25 13 25 10 0 -4 17 2 38 13 67 35
177 85 185 83 4 -1 7 2 7 8 0 6 3 9 8 8 12 -2 105 42 125 59 9 9 17 13 17 10
0 -4 26 9 58 27 31 18 67 37 80 40 12 4 22 11 22 15 0 4 16 13 35 20 19 7 35
17 35 22 0 5 3 8 8 7 7 -2 54 21 62 31 3 4 26 18 53 31 26 14 47 28 47 32 0 5
7 8 15 8 8 0 15 4 15 8 0 5 17 16 37 26 21 10 54 31 74 47 20 16 42 29 48 29
6 0 11 5 11 10 0 6 6 10 13 10 6 0 28 14 47 30 19 16 38 30 42 30 4 0 13 6 20
13 7 6 36 28 63 47 28 19 55 39 61 45 7 5 24 19 39 29 14 11 36 28 48 38 12
10 27 21 32 25 43 33 113 90 126 102 9 9 38 34 65 56 117 97 420 395 539 529
33 38 65 73 70 80 6 6 33 38 60 71 28 33 52 62 56 65 29 27 246 317 339 455
19 28 37 51 42 53 4 2 8 8 8 13 0 6 16 34 35 64 149 233 299 512 419 779 37
81 65 150 63 152 -3 3 -11 -12 -20 -33 -55 -139 -254 -515 -375 -711 -29 -46
-52 -88 -52 -93 0 -5 -5 -9 -11 -9 -7 0 -6 8 3 22 16 24 126 210 170 288 99
174 285 573 360 775 61 163 171 492 184 550 1 6 25 100 52 210 27 110 55 235
62 277 7 43 16 75 20 73 14 -9 20 26 16 79 -4 39 -3 44 3 21 8 -28 9 -29 10
-5 1 14 4 36 6 50 5 22 4 22 -4 5 -9 -18 -10 -18 -10 -2 -1 10 6 25 14 33 8 9
15 23 14 32 0 14 -2 13 -9 -3 -7 -16 -9 -14 -9 15 -1 23 2 30 8 21 5 -7 11 -9
14 -4 3 5 2 15 -4 23 -11 19 -12 33 0 26 5 -3 11 13 14 37 3 23 2 43 -3 45 -6
2 -3 10 5 19 12 11 13 19 5 28 -8 10 -8 15 0 20 6 4 10 26 9 49 -1 22 1 48 4
56 13 34 30 366 30 585 0 150 -9 393 -17 480 -2 17 -7 68 -11 115 -4 47 -9 88
-11 92 -2 4 0 9 6 13 6 4 10 -6 11 -22 0 -15 2 -37 4 -48 5 -24 12 -95 21
-195 3 -41 8 -86 10 -100 3 -14 8 -167 11 -340 3 -173 8 -317 10 -320 6 -6 -4
705 -11 770 -3 25 -7 83 -11 130 -3 47 -7 99 -9 115 -2 17 -7 59 -11 95 -4 36
-9 73 -11 83 -1 9 1 17 7 17 5 0 10 -17 10 -37 1 -21 5 -51 10 -68 5 -20 6
-10 2 30 -5 59 -6 72 -18 146 -3 20 -8 51 -10 70 -10 83 -18 118 -25 114 -4
-2 -5 7 -2 20 2 14 0 25 -4 25 -5 0 -10 23 -11 51 0 31 -6 55 -15 60 -10 7 -9
9 5 9 9 0 17 -3 17 -7 0 -5 7 -39 15 -78 8 -38 16 -83 19 -100 3 -16 8 -39 10
-50 2 -11 7 -40 10 -65 3 -25 8 -54 10 -66 4 -22 16 -111 21 -154 2 -14 6 -43
9 -66 4 -22 9 -72 12 -110 3 -38 7 -87 9 -109 11 -116 19 -388 13 -457 0 -7 1
-17 2 -23 5 -22 0 -36 -12 -29 -10 6 -10 4 0 -8 9 -11 10 -18 2 -23 -7 -4 -7
-12 0 -24 5 -10 8 -20 6 -22 -3 -2 -7 -67 -11 -144 -7 -155 -12 -245 -20 -320
-3 -27 -7 -79 -10 -115 -3 -36 -8 -76 -10 -90 -2 -14 -6 -50 -10 -80 -11 -90
-54 -350 -71 -425 -9 -38 -18 -83 -21 -100 -2 -16 -11 -55 -18 -85 -8 -30 -16
-67 -19 -82 -2 -15 -8 -33 -11 -38 -4 -6 -9 -26 -12 -43 -17 -108 -191 -635
-268 -812 -7 -16 -32 -75 -55 -130 -83 -196 -274 -564 -401 -771 -54 -88 -209
-324 -236 -359 -13 -16 -27 -35 -31 -40 -4 -6 -20 -28 -36 -49 -16 -22 -25
-36 -19 -33 33 20 278 372 378 542 99 168 116 200 220 410 130 261 240 536
346 860 45 138 83 256 85 264 3 8 6 12 9 9 6 -6 -64 -244 -118 -403 -134 -393
-275 -699 -519 -1134 -83 -147 -331 -515 -429 -636 -9 -11 -54 -67 -100 -125
-46 -58 -86 -107 -89 -110 -3 -3 -32 -36 -65 -74 -153 -177 -404 -429 -576
-578 -30 -26 -65 -56 -79 -68 -14 -12 -42 -36 -63 -53 -22 -18 -47 -39 -57
-47 -9 -8 -32 -26 -50 -40 -18 -14 -42 -33 -53 -43 -11 -9 -23 -17 -26 -17 -3
0 -20 -14 -38 -30 -18 -17 -36 -30 -40 -30 -5 0 -20 -11 -35 -25 -15 -14 -32
-25 -38 -25 -5 0 -10 -4 -10 -10 0 -5 -7 -10 -15 -10 -8 0 -15 -4 -15 -9 0 -5
-8 -12 -17 -15 -16 -5 -35 -19 -90 -66 -7 -5 -15 -10 -18 -10 -3 0 -33 -18
-66 -40 -33 -22 -65 -40 -70 -40 -5 0 -9 -4 -9 -9 0 -5 -8 -11 -17 -15 -10 -3
-47 -24 -83 -47 -56 -35 -111 -67 -195 -113 -11 -6 -22 -13 -25 -16 -5 -6
-382 -194 -390 -195 -5 -1 -25 -10 -140 -62 -19 -9 -35 -14 -35 -12 -1 2 -13
-4 -28 -14 -15 -9 -27 -15 -27 -11 0 4 -6 2 -12 -3 -7 -6 -31 -16 -53 -23 -22
-7 -56 -20 -75 -28 -19 -9 -37 -16 -40 -17 -3 0 -9 -3 -15 -6 -13 -8 -108 -39
-118 -39 -4 0 -21 -7 -37 -15 -17 -9 -30 -13 -30 -9 0 4 -7 1 -15 -6 -8 -7
-15 -9 -15 -5 0 4 -7 2 -15 -5 -8 -7 -15 -10 -15 -6 0 3 -24 -4 -52 -15 -29
-12 -60 -22 -68 -24 -8 -2 -35 -9 -60 -16 -60 -17 -62 -17 -85 -22 -11 -3 -46
-12 -77 -22 -32 -9 -60 -16 -63 -16 -2 0 -19 -5 -37 -10 -18 -5 -44 -11 -58
-14 -51 -10 -72 -14 -88 -19 -9 -3 -28 -7 -42 -10 -14 -3 -34 -7 -45 -9 -11
-2 -36 -7 -55 -11 -19 -3 -46 -8 -60 -11 -13 -3 -40 -7 -60 -10 -20 -3 -47 -8
-60 -10 -14 -3 -45 -8 -70 -11 -25 -3 -52 -8 -61 -9 -9 -2 -38 -6 -65 -9 -27
-4 -65 -9 -84 -11 -226 -29 -427 -39 -735 -39 -285 0 -472 8 -645 29 -153 19
-178 21 -175 15 3 -4 33 -10 67 -13 35 -4 72 -8 83 -11 11 -2 52 -7 90 -11 39
-4 84 -8 100 -10 17 -2 80 -7 140 -11 61 -3 130 -8 155 -10 56 -4 503 -4 590
0 153 8 339 24 465 41 22 3 56 7 75 10 43 5 97 13 170 25 30 5 72 12 94 16 21
3 48 8 60 10 11 2 32 6 46 9 34 6 121 24 145 30 11 3 31 7 45 10 72 16 107 24
130 30 14 4 41 11 60 15 19 5 52 13 73 19 31 9 60 17 109 30 4 1 13 4 20 6 91
32 248 79 248 75 0 -5 -89 -41 -115 -46 -5 -1 -59 -18 -118 -38 -93 -31 -258
-80 -307 -91 -8 -2 -60 -15 -114 -30 -55 -14 -109 -27 -120 -30 -12 -2 -32 -6
-46 -9 -14 -3 -36 -8 -50 -11 -14 -3 -36 -8 -50 -11 -14 -3 -34 -6 -45 -8 -11
-2 -29 -6 -40 -9 -11 -3 -38 -9 -60 -12 -23 -3 -52 -8 -65 -10 -14 -3 -38 -7
-55 -9 -16 -3 -43 -7 -60 -10 -16 -2 -66 -10 -110 -16 -44 -6 -96 -13 -115
-16 -19 -3 -62 -7 -95 -9 -33 -3 -80 -7 -105 -10 -62 -7 -142 -14 -225 -19
-181 -13 -226 -27 -125 -41 52 -6 409 -7 490 0 82 7 181 17 204 20 12 2 44 6
71 10 64 8 112 16 139 21 11 2 41 7 66 10 25 3 54 8 65 10 11 3 36 7 55 10 19
3 87 17 150 31 63 13 124 26 135 29 11 2 72 17 135 34 63 17 125 33 136 35 12
3 53 15 90 27 38 12 71 22 74 23 3 0 11 4 18 8 6 5 12 6 12 3 0 -3 12 -1 28 5
15 6 34 12 42 14 8 2 47 15 85 30 39 15 81 29 95 31 13 3 29 9 35 13 5 5 28
14 50 21 22 7 46 17 53 23 6 5 12 6 12 3 0 -4 10 -1 23 6 12 6 27 13 32 14 11
2 93 37 144 62 19 9 37 17 41 17 11 0 95 40 101 48 3 5 8 7 10 6 6 -5 324 153
327 163 2 4 7 6 12 3 5 -3 14 1 22 8 7 7 28 20 46 28 17 7 32 17 32 21 0 5 5
8 11 8 11 0 200 109 209 121 3 3 15 9 28 13 12 4 22 12 22 17 0 5 6 9 13 9 7
0 22 8 33 18 10 9 31 23 47 31 15 8 27 18 27 23 0 4 4 8 9 8 9 0 92 52 118 75
36 30 43 35 53 35 5 0 10 4 10 8 0 4 15 16 33 27 17 10 37 24 43 29 6 6 22 18
34 26 12 8 28 20 34 26 6 6 30 24 53 41 37 26 92 71 153 123 10 8 39 33 66 55
26 22 60 51 75 65 15 14 66 61 115 105 130 119 333 326 441 450 28 33 61 71
73 85 12 14 36 43 53 64 18 22 46 55 63 75 98 114 341 455 429 602 6 9 41 68
79 130 136 224 362 692 454 939 11 30 26 69 33 85 7 17 13 32 14 35 0 3 24 77
53 165 122 379 225 841 268 1200 3 28 7 61 10 75 2 14 6 54 10 90 3 36 7 76 9
89 19 115 27 765 12 996 -9 147 -20 269 -31 365 -3 19 -7 58 -10 85 -3 28 -8
61 -10 75 -3 14 -7 45 -10 70 -3 25 -8 54 -10 65 -2 11 -7 42 -10 68 -4 27 -9
57 -11 67 -2 9 -6 33 -9 51 -11 65 -59 301 -72 352 -2 9 -6 26 -9 38 -2 11 -7
29 -10 39 -3 10 -8 29 -11 42 -8 34 -8 36 -28 113 -10 39 -21 77 -24 85 -3 8
-6 17 -7 20 -7 27 -37 128 -41 140 -3 8 -5 16 -6 17 0 1 -16 46 -35 100 -19
54 -36 103 -37 108 -3 10 -6 17 -22 60 -4 11 -8 25 -9 30 -2 6 -12 30 -23 55
-17 39 -31 71 -37 90 -9 25 -20 53 -41 97 -14 29 -24 55 -24 58 0 5 -145 291
-183 360 -12 22 -25 42 -30 43 -4 2 -5 8 -1 13 3 5 1 9 -4 9 -6 0 -13 11 -16
25 -4 14 -11 25 -16 25 -6 0 -10 4 -10 9 0 5 -24 48 -52 96 -29 47 -62 102
-73 120 -11 19 -28 44 -37 55 -10 11 -18 24 -18 29 0 5 -7 14 -15 21 -9 7 -23
28 -31 46 -9 19 -20 34 -25 34 -5 0 -9 5 -9 11 0 10 -39 67 -72 103 -10 11
-18 23 -18 27 0 4 -6 14 -13 21 -7 7 -24 29 -37 48 -13 19 -27 37 -30 40 -3 3
-17 21 -31 40 -15 19 -36 46 -48 59 -11 13 -21 27 -21 30 0 3 -17 25 -38 47
-20 23 -50 58 -67 79 -194 242 -610 656 -833 829 -15 11 -38 31 -52 43 -43 37
-294 225 -402 299 -113 79 -366 239 -401 255 -12 5 -35 17 -52 27 -199 122
-537 284 -820 394 -77 31 -149 59 -160 63 -11 4 -24 9 -30 11 -5 1 -64 20
-130 43 -425 142 -986 261 -1405 296 -41 4 -93 9 -115 11 -45 5 -722 14 -727
9z m1122 -122 c30 -1 105 -12 165 -24 61 -11 121 -22 135 -24 44 -6 343 -74
415 -95 39 -11 81 -23 94 -26 125 -27 574 -203 839 -329 329 -156 709 -376
957 -553 91 -65 230 -167 241 -177 7 -5 20 -17 31 -25 77 -61 119 -95 123
-100 3 -3 21 -18 40 -34 121 -98 450 -419 450 -438 0 -6 -8 -4 -17 3 -27 22
-83 83 -83 92 0 4 -4 7 -9 7 -5 0 -46 37 -93 83 -88 86 -217 203 -265 240 -15
12 -33 26 -39 32 -6 5 -30 26 -54 45 -24 19 -48 40 -54 45 -13 12 -270 203
-306 228 -317 215 -477 310 -765 457 -398 202 -787 348 -1227 460 -86 21 -171
42 -190 45 -18 3 -49 10 -68 15 -19 5 -51 12 -70 14 -19 3 -98 17 -175 31 -77
15 -153 26 -170 27 -29 0 -29 0 -5 7 14 4 29 5 35 2 5 -3 34 -6 65 -8z m3515
-1842 c3 -5 2 -12 -3 -15 -5 -3 -9 1 -9 9 0 17 3 19 12 6z m296 -348 c13 -16
12 -17 -3 -4 -17 13 -22 21 -14 21 2 0 10 -8 17 -17z m53 -61 c17 -17 27 -32
23 -32 -9 0 -57 53 -57 64 0 5 1 7 3 5 1 -2 15 -19 31 -37z m61 -73 c4 -10 10
-19 15 -19 5 0 11 -8 14 -17 6 -16 47 -68 91 -114 8 -9 15 -20 15 -24 0 -5 9
-18 19 -29 25 -28 191 -275 191 -285 0 -5 10 -21 22 -37 24 -30 50 -72 70
-114 7 -14 15 -27 18 -30 3 -3 13 -21 23 -40 39 -73 52 -95 62 -102 6 -4 7 -8
3 -8 -4 0 5 -21 20 -47 31 -55 115 -225 162 -328 17 -38 40 -89 52 -112 11
-23 19 -44 19 -48 -1 -3 5 -18 13 -33 12 -23 21 -44 31 -72 1 -3 5 -14 9 -25
5 -11 21 -56 38 -100 16 -44 38 -100 47 -125 10 -25 24 -65 31 -90 7 -25 20
-65 29 -90 9 -25 16 -48 17 -52 1 -5 2 -9 4 -10 1 -2 3 -11 5 -20 2 -9 10 -39
18 -65 18 -58 32 -112 47 -178 7 -27 16 -61 21 -75 5 -14 11 -36 14 -50 3 -14
7 -35 10 -47 3 -13 8 -35 11 -50 3 -16 9 -47 15 -71 5 -23 12 -59 15 -80 3
-20 9 -53 14 -72 5 -19 12 -55 15 -80 4 -24 9 -48 11 -52 3 -5 0 -8 -5 -8 -6
0 -11 6 -12 13 -1 12 -2 23 -14 87 -4 19 -9 44 -11 55 -2 11 -8 43 -14 70 -6
28 -13 64 -16 80 -3 17 -17 73 -31 125 -14 52 -27 105 -29 117 -2 12 -9 34
-14 48 -5 14 -8 25 -5 25 2 0 -3 19 -11 43 -9 23 -17 49 -19 58 -4 17 -43 154
-51 179 -3 8 -5 16 -4 18 0 1 -7 16 -15 32 -9 17 -14 30 -11 30 2 0 -9 35 -26
78 -16 42 -30 82 -32 87 -1 6 -8 20 -14 33 -7 12 -10 22 -6 22 3 0 2 6 -3 13
-6 6 -16 30 -23 52 -12 37 -20 56 -73 175 -11 25 -21 47 -22 50 -21 56 -43
104 -119 255 -49 99 -95 183 -100 187 -6 4 -7 8 -3 8 5 0 0 12 -10 28 -10 15
-32 52 -48 82 -16 30 -35 61 -42 68 -7 7 -13 20 -13 27 0 7 -7 21 -16 30 -9 8
-17 26 -18 39 0 13 -4 22 -8 20 -9 -6 -61 75 -61 93 0 7 -4 13 -9 13 -4 0 -8
3 -7 8 3 21 -15 53 -28 48 -8 -3 -11 -1 -8 4 7 11 -25 70 -37 70 -4 0 -8 5 -8
11 0 9 -15 31 -77 114 -5 6 -24 33 -42 60 -19 28 -38 52 -41 55 -3 3 -19 23
-36 45 -16 22 -35 46 -41 53 -17 18 -16 23 2 16 8 -3 17 -14 20 -25z m1102
-1941 c-3 -8 -6 -5 -6 6 -1 11 2 17 5 13 3 -3 4 -12 1 -19z m10 -40 c-3 -8 -6
-5 -6 6 -1 11 2 17 5 13 3 -3 4 -12 1 -19z m22 -58 c0 -10 -3 -8 -9 5 -12 27
-12 43 0 25 5 -8 9 -22 9 -30z m15 -46 c3 -11 18 -67 34 -126 16 -60 26 -108
22 -108 -3 0 -19 48 -34 108 -34 133 -39 158 -31 151 3 -4 7 -15 9 -25z m72
-279 c6 -19 7 -35 3 -35 -5 0 -9 1 -9 3 0 1 -4 17 -9 35 -13 43 1 41 15 -3z
m22 -85 c5 -22 7 -40 3 -40 -4 0 -12 18 -18 40 -5 22 -7 40 -3 40 4 0 12 -18
18 -40z m37 -328 c3 -26 9 -63 11 -82 3 -19 3 -32 0 -29 -3 3 -8 23 -11 45 -4
21 -8 48 -9 59 -13 79 -15 109 -7 82 5 -15 12 -49 16 -75z m-64 -49 c0 -10 4
-39 8 -65 4 -27 4 -48 -1 -48 -4 0 -8 15 -8 33 0 17 -4 47 -9 65 -6 20 -6 32
0 32 5 0 9 -8 10 -17z m20 -145 c0 -13 2 -32 4 -43 8 -38 17 -160 12 -155 -3
3 -8 32 -11 65 -10 92 -17 139 -22 147 -3 5 0 8 5 8 6 0 11 -10 12 -22z m42
-117 c-7 -9 -11 6 -16 64 l-5 60 12 -60 c7 -33 11 -62 9 -64z m-16 -106 c0 -8
-4 -12 -9 -9 -5 3 -6 10 -3 15 9 13 12 11 12 -6z m5 -59 c2 -19 0 -32 -4 -30
-8 5 -12 64 -4 64 2 0 6 -15 8 -34z m5 -108 c-2 -13 -4 -3 -4 22 0 25 2 35 4
23 2 -13 2 -33 0 -45z m-280 -585 c-3 -10 -5 -2 -5 17 0 19 2 27 5 18 2 -10 2
-26 0 -35z m438 -905 c-3 -24 -10 -70 -15 -103 -5 -33 -12 -78 -15 -100 -15
-123 -68 -340 -126 -521 -50 -158 -130 -376 -135 -371 -2 2 17 64 41 138 44
129 142 465 152 518 2 14 17 85 33 156 16 72 34 162 40 200 14 92 21 125 26
125 2 0 2 -19 -1 -42z m-228 -60 c-3 -7 -5 -2 -5 12 0 14 2 19 5 13 2 -7 2
-19 0 -25z m-7 -493 c0 -8 -4 -15 -10 -15 -5 0 -7 7 -4 15 4 8 8 15 10 15 2 0
4 -7 4 -15z m-17 -75 c-8 -30 -21 -34 -15 -5 2 14 8 25 12 25 5 0 6 -9 3 -20z
m-243 -975 c-20 -52 -124 -273 -165 -350 -23 -44 -62 -116 -85 -160 -48 -90
-204 -352 -260 -435 -126 -189 -321 -453 -360 -490 -3 -3 -35 -41 -70 -85 -36
-44 -72 -87 -80 -95 -8 -9 -35 -40 -60 -69 -86 -102 -406 -418 -529 -521 -29
-25 -62 -52 -73 -62 -10 -9 -37 -31 -60 -50 -23 -18 -55 -46 -72 -61 -17 -15
-43 -35 -58 -43 -16 -8 -28 -19 -28 -24 0 -6 -7 -10 -15 -10 -7 0 -18 -6 -22
-13 -4 -8 -36 -34 -70 -59 -35 -25 -59 -49 -55 -53 4 -5 1 -5 -6 -1 -8 5 -21
0 -33 -13 -11 -12 -24 -21 -29 -21 -5 0 -15 -6 -22 -13 -21 -20 -108 -77 -119
-77 -5 0 -9 -4 -9 -10 0 -5 -6 -10 -13 -10 -7 0 -31 -13 -53 -29 -21 -16 -61
-41 -89 -56 -27 -16 -52 -31 -55 -34 -3 -3 -14 -11 -25 -17 -28 -15 -134 -74
-173 -96 -18 -10 -38 -18 -45 -18 -13 0 67 47 96 57 9 3 17 9 17 14 0 5 4 9
10 9 10 0 111 59 120 70 3 4 12 10 20 14 28 13 112 66 120 76 3 4 27 21 54 40
27 18 57 40 66 49 10 9 47 36 83 61 37 25 66 48 67 53 0 4 5 7 10 7 9 0 164
114 196 144 7 6 26 22 44 36 18 14 37 30 44 35 6 6 34 28 61 50 28 21 59 48
70 60 11 11 54 49 95 85 86 75 399 388 481 481 32 35 68 76 80 90 13 15 31 35
39 45 71 89 145 180 150 184 4 3 48 61 98 129 170 228 375 546 489 756 64 119
187 364 206 413 9 23 19 42 22 42 2 0 0 -11 -5 -25z m-2745 -2985 c3 -5 1 -10
-4 -10 -6 0 -11 5 -11 10 0 6 2 10 4 10 3 0 8 -4 11 -10z m-59 -35 c-11 -8
-25 -15 -30 -15 -6 1 0 7 14 15 32 19 40 18 16 0z m-621 -265 c-3 -5 -12 -10
-18 -10 -7 0 -6 4 3 10 19 12 23 12 15 0z m-35 -14 c0 -2 -9 -6 -20 -9 -11 -3
-18 -1 -14 4 5 9 34 13 34 5z m-60 -26 c-8 -5 -22 -10 -30 -10 -13 0 -13 1 0
10 8 5 22 10 30 10 13 0 13 -1 0 -10z m-55 -19 c-9 -8 -36 -10 -30 -2 2 4 11
8 20 8 8 0 13 -3 10 -6z"/>
<path d="M2340 6375 l0 -2814 722 2 721 2 0 2810 0 2810 -721 3 -722 2 0
-2815z"/>
<path d="M6637 9183 c-3 -5 -114 -278 -247 -608 -134 -330 -296 -730 -360
-890 -97 -239 -782 -1930 -1337 -3300 -69 -170 -171 -420 -226 -555 -54 -135
-101 -251 -104 -258 -4 -10 153 -12 774 -11 429 0 784 4 790 7 10 7 30 60 323
843 l151 406 957 -1 957 -1 23 -65 c12 -36 31 -90 42 -120 10 -30 24 -68 31
-85 7 -16 13 -33 14 -37 2 -5 4 -10 5 -13 1 -3 3 -8 5 -12 1 -5 5 -17 9 -28
26 -69 31 -81 33 -90 2 -12 67 -193 88 -245 18 -48 28 -74 29 -80 2 -5 18 -49
64 -175 14 -38 27 -74 28 -80 1 -5 7 -23 14 -40 6 -16 12 -31 12 -32 0 -1 12
-35 27 -75 l27 -73 787 -2 c504 -2 786 1 782 7 -3 6 -8 18 -10 27 -2 10 -11
36 -21 58 -10 22 -18 42 -19 45 -3 9 -17 45 -25 65 -5 11 -30 72 -56 135 -25
63 -51 126 -57 140 -6 14 -11 27 -12 30 -1 3 -5 14 -10 25 -4 11 -21 54 -37
95 -16 41 -34 84 -39 95 -4 11 -26 65 -48 120 -22 55 -47 118 -57 140 -10 22
-19 45 -20 50 -1 6 -10 28 -20 50 -10 22 -18 42 -19 45 -1 3 -7 18 -13 33 -7
16 -12 30 -12 33 0 3 -7 21 -17 42 -9 20 -17 39 -17 42 -1 4 -25 64 -75 185
-5 11 -8 22 -7 25 0 3 -7 18 -17 33 -9 15 -15 27 -12 27 3 0 0 10 -7 23 -7 12
-13 24 -13 27 -1 12 -49 126 -58 138 -5 6 -6 12 -3 12 4 0 1 10 -6 23 -6 12
-13 27 -15 32 -6 25 -76 191 -85 203 -6 6 -7 12 -3 12 4 0 0 11 -9 25 -9 14
-14 25 -11 25 3 0 0 10 -7 23 -6 12 -13 27 -14 32 -1 6 -9 27 -18 47 -9 21
-15 39 -14 41 2 2 -5 15 -15 30 -9 15 -15 27 -12 27 3 0 0 10 -7 23 -7 12 -13
24 -13 27 -1 6 -61 154 -77 190 -6 14 -12 27 -13 30 -4 11 -17 46 -26 65 -4
11 -45 112 -90 225 -45 113 -86 211 -91 218 -6 6 -7 12 -4 12 4 0 1 10 -6 23
-7 12 -13 24 -13 27 -2 5 -21 53 -32 80 -3 8 -7 17 -8 20 -1 3 -7 18 -13 33
-7 16 -12 31 -12 34 0 3 -6 19 -14 36 -17 37 -79 188 -108 262 -10 28 -23 59
-28 70 -11 24 -33 78 -34 85 -1 6 -24 63 -46 115 -19 45 -27 66 -29 78 0 4 -8
22 -18 40 -9 17 -18 37 -19 42 -1 6 -10 28 -19 50 -10 22 -19 42 -20 45 -6 16
-18 48 -27 70 -5 14 -9 26 -8 28 1 2 -6 14 -14 28 -9 13 -14 24 -11 24 3 0 0
10 -7 23 -7 12 -13 24 -14 27 -2 8 -15 44 -25 65 -4 11 -29 72 -55 135 -25 63
-52 129 -59 145 -7 17 -21 50 -30 75 -9 25 -22 56 -28 70 -6 14 -11 27 -12 30
-6 18 -32 82 -55 135 -5 11 -21 52 -35 90 -15 39 -32 76 -37 83 -6 6 -7 12 -3
12 4 0 0 11 -9 25 -9 14 -14 25 -10 25 3 0 -1 11 -10 25 -9 14 -14 25 -11 25
3 0 0 10 -7 23 -7 12 -13 24 -14 27 0 3 -4 12 -7 20 -13 30 -30 75 -33 85 -1
6 -23 59 -48 120 -25 60 -46 111 -46 112 0 7 -1429 2 -1433 -4z m763 -1968
c11 -27 23 -58 26 -70 1 -5 8 -23 15 -40 6 -16 13 -34 14 -40 4 -13 70 -193
100 -270 26 -68 38 -98 40 -105 5 -20 29 -87 34 -95 3 -5 6 -12 6 -15 1 -8 47
-134 75 -205 8 -21 22 -56 25 -65 1 -3 4 -12 8 -20 3 -8 15 -42 27 -75 11 -33
24 -67 27 -75 3 -8 7 -17 8 -20 1 -3 4 -12 7 -20 9 -24 15 -45 15 -50 0 -3 5
-15 12 -27 6 -13 8 -24 4 -24 -28 -5 -983 -13 -987 -8 -5 5 198 555 214 581 5
10 10 23 10 29 0 6 40 118 89 248 49 130 110 294 137 364 l47 129 19 -54 c11
-29 23 -62 28 -73z"/>
<path d="M241 7614 c0 -11 3 -14 6 -6 3 7 2 16 -1 19 -3 4 -6 -2 -5 -13z"/>
<path d="M231 7564 c0 -11 3 -14 6 -6 3 7 2 16 -1 19 -3 4 -6 -2 -5 -13z"/>
<path d="M207 7461 c-4 -17 -3 -21 5 -13 5 5 8 16 6 23 -3 8 -7 3 -11 -10z"/>
<path d="M201 7414 c0 -11 3 -14 6 -6 3 7 2 16 -1 19 -3 4 -6 -2 -5 -13z"/>
<path d="M12398 7165 c2 -19 6 -35 8 -35 2 0 4 16 4 35 0 19 -4 35 -8 35 -4 0
-6 -16 -4 -35z"/>
<path d="M12406 7095 c8 -37 14 -45 14 -19 0 10 -5 26 -10 34 -8 11 -9 7 -4
-15z"/>
<path d="M12422 6945 c0 -16 2 -22 5 -12 2 9 2 23 0 30 -3 6 -5 -1 -5 -18z"/>
<path d="M12030 6875 c0 -14 4 -25 9 -25 4 0 6 11 3 25 -2 14 -6 25 -8 25 -2
0 -4 -11 -4 -25z"/>
<path d="M12431 6874 c0 -11 3 -14 6 -6 3 7 2 16 -1 19 -3 4 -6 -2 -5 -13z"/>
<path d="M101 6434 c0 -11 3 -14 6 -6 3 7 2 16 -1 19 -3 4 -6 -2 -5 -13z"/>
<path d="M12403 6105 c0 -8 4 -12 9 -9 4 3 8 9 8 15 0 5 -4 9 -8 9 -5 0 -9 -7
-9 -15z"/>
<path d="M12402 6050 c0 -19 2 -27 5 -17 2 9 2 25 0 35 -3 9 -5 1 -5 -18z"/>
<path d="M12032 6000 c0 -19 2 -27 5 -17 2 9 2 25 0 35 -3 9 -5 1 -5 -18z"/>
<path d="M12401 5984 c0 -11 3 -14 6 -6 3 7 2 16 -1 19 -3 4 -6 -2 -5 -13z"/>
<path d="M12011 5794 c0 -11 3 -14 6 -6 3 7 2 16 -1 19 -3 4 -6 -2 -5 -13z"/>
<path d="M12266 5288 c-3 -13 -5 -32 -5 -43 1 -11 5 -2 10 19 10 42 6 62 -5
24z"/>
<path d="M12252 5200 c0 -14 2 -19 5 -12 2 6 2 18 0 25 -3 6 -5 1 -5 -13z"/>
<path d="M11900 4039 c-7 -11 -10 -23 -7 -25 2 -2 9 7 15 21 14 30 7 33 -8 4z"/>
<path d="M666 3840 c7 -27 34 -71 34 -55 -1 6 -10 26 -21 45 -15 26 -18 29
-13 10z"/>
<path d="M706 3739 c8 -17 18 -28 21 -25 3 3 1 12 -5 19 -7 8 -9 16 -6 19 2 3
-2 8 -11 11 -14 6 -14 3 1 -24z"/>
<path d="M730 3690 c8 -5 11 -10 6 -10 -5 0 -2 -8 7 -17 8 -10 15 -20 14 -23
-1 -5 102 -221 109 -229 2 -2 7 -1 11 3 8 7 -38 106 -49 106 -5 0 -8 9 -8 20
0 11 -5 20 -11 20 -5 0 -8 4 -4 9 3 5 0 15 -7 23 -7 7 -23 34 -35 61 -13 26
-28 47 -35 47 -9 0 -8 -3 2 -10z"/>
<path d="M876 3401 c-4 -5 -3 -11 1 -13 5 -1 28 -41 52 -87 24 -46 70 -126
102 -178 32 -52 59 -98 59 -104 0 -5 5 -9 10 -9 6 0 10 -7 10 -15 0 -8 5 -15
10 -15 6 0 10 -7 10 -15 0 -8 5 -15 10 -15 6 0 10 -4 10 -10 0 -12 138 -216
168 -248 6 -7 12 -16 12 -20 0 -4 11 -20 25 -36 14 -16 25 -32 25 -35 0 -3 10
-17 23 -31 12 -14 35 -43 52 -65 35 -47 52 -69 80 -100 11 -13 36 -43 55 -66
19 -24 44 -53 55 -65 11 -13 45 -51 75 -86 62 -71 398 -409 476 -478 27 -25
74 -65 103 -90 30 -25 61 -52 70 -61 9 -8 57 -46 106 -84 50 -38 95 -74 102
-80 37 -31 43 -35 52 -35 5 0 11 -3 13 -7 5 -13 77 -66 227 -167 127 -86 188
-124 342 -214 21 -12 39 -19 39 -14 0 5 -19 19 -42 32 -99 55 -424 275 -518
350 -25 20 -76 60 -115 90 -60 45 -151 120 -189 155 -6 6 -40 35 -76 65 -181
153 -484 461 -655 666 -22 26 -47 55 -55 64 -9 9 -29 34 -45 55 -17 22 -32 42
-35 45 -3 3 -21 25 -40 50 -19 25 -38 47 -42 48 -4 2 -8 9 -8 16 0 6 -8 19
-17 28 -25 23 -37 38 -68 88 -27 42 -37 56 -62 85 -7 7 -13 18 -13 23 0 5 -9
17 -20 27 -11 10 -20 24 -20 32 0 7 -4 13 -8 13 -4 0 -30 37 -58 83 -27 45
-52 84 -56 85 -5 2 -8 10 -8 18 0 8 -4 14 -10 14 -5 0 -10 6 -10 14 0 8 -6 21
-12 28 -15 16 -35 47 -45 68 -4 8 -15 24 -25 34 -10 11 -18 26 -18 33 0 7 -4
13 -8 13 -5 0 -17 18 -27 40 -10 22 -21 40 -25 40 -5 0 -11 11 -14 25 -6 25
-20 33 -30 16z"/>
<path d="M10320 2251 c-80 -80 -177 -173 -215 -206 -38 -33 -80 -70 -94 -83
-14 -13 -40 -35 -59 -50 -19 -15 -47 -37 -61 -49 -14 -12 -43 -36 -65 -53 -21
-16 -34 -30 -28 -30 6 0 14 5 17 10 4 6 25 23 48 37 23 14 44 29 47 32 3 3 32
26 65 51 33 25 62 48 63 53 2 4 10 7 17 7 7 0 15 7 19 15 3 8 11 15 17 15 6 0
27 17 47 38 19 20 98 104 176 185 118 124 170 183 154 176 -2 -1 -68 -67 -148
-148z"/>
<path d="M2688 1585 c17 -14 33 -25 37 -25 3 0 -7 11 -23 25 -17 14 -33 25
-37 25 -3 0 7 -11 23 -25z"/>
<path d="M2745 1544 c6 -5 23 -20 40 -34 29 -24 29 -24 10 -2 -11 13 -29 28
-40 34 -11 6 -15 6 -10 2z"/>
<path d="M2820 1486 c0 -2 28 -24 63 -49 34 -25 73 -54 86 -66 13 -12 28 -21
32 -21 4 0 14 -6 21 -13 7 -7 54 -40 103 -72 595 -388 1126 -620 1788 -781 82
-19 151 -34 153 -31 3 3 -30 13 -73 22 -69 15 -334 87 -373 101 -8 3 -17 6
-20 6 -3 0 -63 21 -135 45 -531 181 -1142 496 -1550 798 -78 57 -95 68 -95 61z"/>
<path d="M3698 1260 c42 -26 56 -26 17 0 -16 11 -34 20 -40 20 -5 0 5 -9 23
-20z"/>
<path d="M3751 1236 c10 -9 69 -36 69 -32 0 6 -55 36 -66 36 -4 0 -5 -2 -3 -4z"/>
<path d="M3860 1180 c19 -11 40 -19 45 -19 6 0 -6 8 -25 19 -19 11 -39 19 -45
19 -5 0 6 -8 25 -19z"/>
<path d="M8376 983 c-4 -5 -11 -8 -14 -9 -4 0 -18 -5 -32 -11 -14 -5 -68 -25
-120 -43 -52 -17 -99 -36 -105 -42 -8 -7 13 -1 105 30 8 3 17 6 20 7 33 8 150
50 170 60 23 13 23 14 4 15 -11 0 -24 -3 -28 -7z"/>
<path d="M3266 941 c13 -13 204 -114 204 -108 0 5 -198 117 -207 117 -4 0 -3
-4 3 -9z"/>
<path d="M8035 860 c-3 -6 1 -7 9 -4 18 7 21 14 7 14 -6 0 -13 -4 -16 -10z"/>
<path d="M8800 850 c-9 -6 -10 -10 -3 -10 6 0 15 5 18 10 8 12 4 12 -15 0z"/>
<path d="M3510 810 c35 -24 54 -31 30 -11 -14 11 -29 21 -35 21 -5 0 -3 -5 5
-10z"/>
<path d="M3910 610 c8 -5 20 -10 25 -10 6 0 3 5 -5 10 -8 5 -19 10 -25 10 -5
0 -3 -5 5 -10z"/>
<path d="M6520 610 c-9 -6 -10 -10 -3 -10 6 0 15 5 18 10 8 12 4 12 -15 0z"/>
<path d="M6292 605 c7 -8 199 -8 206 0 3 3 -43 5 -103 5 -60 0 -106 -2 -103
-5z"/>
<path d="M3990 576 c25 -13 86 -41 135 -61 50 -21 104 -44 121 -51 92 -40 236
-90 367 -129 154 -46 390 -99 411 -92 6 2 -25 12 -69 21 -228 51 -683 199
-906 296 -103 45 -127 51 -59 16z"/>
<path d="M8128 493 c7 -3 16 -2 19 1 4 3 -2 6 -13 5 -11 0 -14 -3 -6 -6z"/>
<path d="M5098 443 c7 -3 16 -2 19 1 4 3 -2 6 -13 5 -11 0 -14 -3 -6 -6z"/>
<path d="M5138 433 c6 -2 18 -2 25 0 6 3 1 5 -13 5 -14 0 -19 -2 -12 -5z"/>
<path d="M7906 431 c-3 -4 6 -6 19 -3 14 2 25 6 25 8 0 8 -39 4 -44 -5z"/>
<path d="M5188 423 c6 -2 18 -2 25 0 6 3 1 5 -13 5 -14 0 -19 -2 -12 -5z"/>
<path d="M5238 413 c6 -2 18 -2 25 0 6 3 1 5 -13 5 -14 0 -19 -2 -12 -5z"/>
<path d="M7835 410 c-3 -6 1 -7 9 -4 18 7 21 14 7 14 -6 0 -13 -4 -16 -10z"/>
<path d="M5298 403 c7 -3 16 -2 19 1 4 3 -2 6 -13 5 -11 0 -14 -3 -6 -6z"/>
<path d="M7773 403 c-13 -2 -23 -8 -23 -13 0 -5 15 -4 33 2 52 18 47 22 -10
11z"/>
<path d="M5343 393 c9 -2 23 -2 30 0 6 3 -1 5 -18 5 -16 0 -22 -2 -12 -5z"/>
<path d="M7705 383 c-147 -31 -206 -44 -235 -48 -19 -3 -46 -8 -60 -10 -49
-10 -66 -13 -115 -19 -27 -4 -61 -9 -75 -11 -77 -12 -184 -25 -245 -31 -38 -3
-81 -8 -95 -10 -66 -10 -319 -18 -547 -19 -139 0 -253 -3 -253 -7 0 -8 23 -9
285 -11 209 -2 460 10 590 28 22 3 69 8 105 11 35 3 67 7 71 10 4 2 28 6 55
10 68 8 84 11 124 18 19 3 46 8 60 10 151 27 324 64 355 76 21 9 13 10 -20 3z"/>
<path d="M5048 233 c6 -2 18 -2 25 0 6 3 1 5 -13 5 -14 0 -19 -2 -12 -5z"/>
<path d="M6016 231 c9 -9 34 -9 34 -1 0 5 -9 8 -20 7 -10 -1 -17 -3 -14 -6z"/>
<path d="M5323 203 c9 -2 23 -2 30 0 6 3 -1 5 -18 5 -16 0 -22 -2 -12 -5z"/>
<path d="M5378 198 c5 -5 16 -8 23 -6 8 3 3 7 -10 11 -17 4 -21 3 -13 -5z"/>
</g>
</svg>
